<svg width="173" height="36" viewBox="0 0 173 36" fill="none" xmlns="http://www.w3.org/2000/svg">
<path d="M5.59389 4.29297C6.41078 3.49883 7.51484 3.05322 8.66553 3.05322H26.7517C27.9616 3.05322 29.1172 3.54579 29.9422 4.41316L35 9.73102H0L5.59389 4.29297Z" fill="url(#paint0_linear_1840_15820)"/>
<path d="M0 9.73145H35V31.9017C35 33.613 33.5843 35.0002 31.838 35.0002H3.16199C1.41567 35.0002 0 33.613 0 31.9017V9.73145Z" fill="url(#paint1_linear_1840_15820)"/>
<path d="M15.6463 3H17.2818L16.7094 9.6778H13.2476L15.6463 3Z" fill="white"/>
<path d="M17.8271 3H19.4081L21.7251 9.6778H18.2633L17.8271 3Z" fill="white"/>
<path d="M13.2476 9.67773H17.4999H21.7522V18.439L17.5544 13.3906L13.2476 18.439V9.67773Z" fill="url(#paint2_linear_1840_15820)"/>
<path fill-rule="evenodd" clip-rule="evenodd" d="M13.2476 19.4009H16.0824V23.5678H18.9173V19.4009H21.7522V29.8182H19.7896C19.3079 29.8182 18.9173 29.4356 18.9173 28.9635V25.5979H16.0824V28.9635C16.0824 29.4356 15.6919 29.8182 15.2102 29.8182H13.2476V19.4009Z" fill="white"/>
<path fill-rule="evenodd" clip-rule="evenodd" d="M22.5701 20.2556C22.5701 19.7836 22.9606 19.4009 23.4423 19.4009H23.4969H25.405H25.4595L28.4579 25.8026V19.4009H30.4205C30.9023 19.4009 31.2928 19.7836 31.2928 20.2556V29.8182H30.3388H28.9356H28.9213L28.9213 29.8181C28.586 29.8128 28.283 29.6194 28.1428 29.32L25.405 23.4747V28.9635C25.405 29.4356 25.0144 29.8182 24.5327 29.8182H22.5701V20.2556Z" fill="white"/>
<path fill-rule="evenodd" clip-rule="evenodd" d="M6.43313 19.4009C4.92768 19.4009 3.70728 20.5968 3.70728 22.072V27.6813C3.70728 28.7339 4.48394 29.6088 5.50634 29.7856V29.8182H5.88796H6.54217H10.1403H10.3584H11.6123C12.094 29.8182 12.4845 29.4356 12.4845 28.9635V23.5678H11.3397H10.1403H8.94092C8.70005 23.5678 8.50478 23.7592 8.50478 23.9952V25.5979L10.1403 25.5979L10.1403 27.8416H7.19637L6.99531 27.7924C6.95505 27.7825 6.91621 27.7678 6.87967 27.7485L6.86699 27.7418C6.77206 27.6917 6.69232 27.6179 6.63581 27.528C6.60634 27.481 6.58592 27.4292 6.57556 27.375L6.54217 27.2005V22.2323L6.57683 22.0964C6.59001 22.0447 6.60972 21.9948 6.63549 21.9479L6.67633 21.8736C6.74915 21.7411 6.85638 21.6298 6.98719 21.5509L7.03865 21.5199C7.10687 21.4787 7.18223 21.4502 7.26096 21.4358L7.28723 21.4309H12.4845V20.2556C12.4845 19.7836 12.094 19.4009 11.6123 19.4009H6.54217H6.43313Z" fill="white"/>
<path d="M45.87 33.06C45.1767 33.06 44.6833 32.8733 44.39 32.5C44.1033 32.1267 43.96 31.5433 43.96 30.75C43.96 30.4767 43.9733 30.1967 44 29.91C44.0333 29.6167 44.0733 29.3267 44.12 29.04C44.2467 28.2867 44.44 27.65 44.7 27.13C44.96 26.61 45.3033 26.2167 45.73 25.95C46.1567 25.6833 46.68 25.55 47.3 25.55C47.8933 25.55 48.38 25.5833 48.76 25.65C49.14 25.71 49.48 25.7867 49.78 25.88L49.63 26.84C49.3967 26.7933 49.0967 26.75 48.73 26.71C48.37 26.67 47.9367 26.65 47.43 26.65C46.9767 26.65 46.6133 26.7467 46.34 26.94C46.0733 27.1267 45.8633 27.4167 45.71 27.81C45.5633 28.1967 45.44 28.7 45.34 29.32C45.2533 29.8733 45.21 30.3233 45.21 30.67C45.21 31.0833 45.2933 31.3967 45.46 31.61C45.6267 31.8167 45.9067 31.92 46.3 31.92C46.4333 31.92 46.58 31.91 46.74 31.89C46.9067 31.87 47.0667 31.8467 47.22 31.82C47.38 31.7867 47.5233 31.7567 47.65 31.73C47.7833 31.6967 47.89 31.6667 47.97 31.64L48.24 29.93H46.75L46.9 28.96C47.08 28.94 47.31 28.9233 47.59 28.91C47.87 28.89 48.2 28.88 48.58 28.88C48.68 28.88 48.7933 28.8833 48.92 28.89C49.0467 28.89 49.17 28.8933 49.29 28.9C49.41 28.9 49.51 28.9 49.59 28.9L48.94 33H48.02L47.92 32.49C47.8267 32.5433 47.6967 32.6033 47.53 32.67C47.37 32.7367 47.1933 32.8 47 32.86C46.8067 32.9133 46.61 32.96 46.41 33C46.2167 33.04 46.0367 33.06 45.87 33.06ZM51.123 26.79C51.0696 26.79 51.0263 26.7733 50.993 26.74C50.9596 26.7067 50.9496 26.6633 50.963 26.61L51.103 25.7C51.1296 25.5667 51.203 25.5 51.323 25.5H52.263C52.323 25.5 52.363 25.52 52.383 25.56C52.4096 25.6 52.4163 25.6467 52.403 25.7L52.263 26.61C52.243 26.73 52.1763 26.79 52.063 26.79H51.123ZM49.983 33L50.823 27.64H52.063L51.223 33H49.983ZM53.9053 33.06C53.632 33.06 53.382 32.9967 53.1553 32.87C52.9286 32.7433 52.7453 32.5467 52.6053 32.28C52.472 32.0067 52.4053 31.6567 52.4053 31.23C52.4053 31.0433 52.4186 30.85 52.4453 30.65C52.472 30.45 52.4953 30.28 52.5153 30.14C52.6086 29.56 52.7653 29.0833 52.9853 28.71C53.2053 28.33 53.5053 28.0467 53.8853 27.86C54.272 27.6733 54.752 27.58 55.3253 27.58C55.6053 27.58 55.882 27.6067 56.1553 27.66C56.4353 27.7067 56.692 27.7767 56.9253 27.87C57.1586 27.9633 57.3553 28.0733 57.5153 28.2L56.7553 33H55.6653L55.6053 32.45C55.512 32.5233 55.372 32.61 55.1853 32.71C54.9986 32.8033 54.792 32.8867 54.5653 32.96C54.3453 33.0267 54.1253 33.06 53.9053 33.06ZM54.4853 32.06C54.7386 32.06 54.9653 32.0167 55.1653 31.93C55.3653 31.8367 55.552 31.74 55.7253 31.64L56.1753 28.79C56.102 28.75 55.9853 28.7067 55.8253 28.66C55.6653 28.6067 55.4786 28.58 55.2653 28.58C54.9386 28.58 54.672 28.6433 54.4653 28.77C54.2653 28.8967 54.1053 29.0833 53.9853 29.33C53.872 29.57 53.7853 29.8733 53.7253 30.24C53.6986 30.4 53.6786 30.5467 53.6653 30.68C53.652 30.8133 53.6453 30.9233 53.6453 31.01C53.6453 31.33 53.7153 31.5867 53.8553 31.78C54.002 31.9667 54.212 32.06 54.4853 32.06ZM60.0289 33.06C59.5889 33.06 59.2156 32.9933 58.9089 32.86C58.6022 32.7267 58.3689 32.5267 58.2089 32.26C58.0489 31.9867 57.9689 31.6367 57.9689 31.21C57.9689 31.03 57.9756 30.86 57.9889 30.7C58.0022 30.5333 58.0222 30.37 58.0489 30.21C58.1356 29.67 58.2522 29.23 58.3989 28.89C58.5456 28.55 58.7322 28.2867 58.9589 28.1C59.1856 27.9067 59.4556 27.7733 59.7689 27.7C60.0889 27.62 60.4622 27.58 60.8889 27.58C61.4289 27.58 61.8456 27.65 62.1389 27.79C62.4389 27.93 62.6456 28.1433 62.7589 28.43C62.8789 28.7167 62.9389 29.0767 62.9389 29.51C62.9389 29.67 62.9322 29.84 62.9189 30.02C62.9056 30.2 62.8822 30.3867 62.8489 30.58C62.7489 31.2333 62.5856 31.74 62.3589 32.1C62.1322 32.46 61.8289 32.71 61.4489 32.85C61.0756 32.99 60.6022 33.06 60.0289 33.06ZM60.1689 32.06C60.3822 32.06 60.5689 32.0367 60.7289 31.99C60.8889 31.9433 61.0222 31.8633 61.1289 31.75C61.2422 31.63 61.3356 31.46 61.4089 31.24C61.4889 31.02 61.5589 30.74 61.6189 30.4C61.6456 30.2067 61.6656 30.0367 61.6789 29.89C61.6989 29.7367 61.7089 29.5933 61.7089 29.46C61.7089 29.1267 61.6322 28.8933 61.4789 28.76C61.3256 28.6267 61.0722 28.56 60.7189 28.56C60.4922 28.56 60.2989 28.5867 60.1389 28.64C59.9856 28.6933 59.8522 28.7867 59.7389 28.92C59.6256 29.0467 59.5322 29.2333 59.4589 29.48C59.3856 29.72 59.3189 30.0267 59.2589 30.4C59.2389 30.5467 59.2222 30.6833 59.2089 30.81C59.1956 30.93 59.1889 31.0467 59.1889 31.16C59.1889 31.4 59.2289 31.5867 59.3089 31.72C59.3889 31.8467 59.4989 31.9367 59.6389 31.99C59.7856 32.0367 59.9622 32.06 60.1689 32.06ZM68.0634 33.06C67.7434 33.06 67.4334 33.0467 67.1334 33.02C66.8334 33 66.5601 32.9767 66.3134 32.95C66.0668 32.9167 65.8534 32.88 65.6734 32.84L65.8234 31.87C66.1234 31.8967 66.4734 31.9167 66.8734 31.93C67.2734 31.9433 67.6668 31.95 68.0534 31.95C68.3468 31.95 68.5968 31.9267 68.8034 31.88C69.0168 31.8333 69.1834 31.7467 69.3034 31.62C69.4234 31.4933 69.5001 31.3133 69.5334 31.08L69.5834 30.74C69.5968 30.7 69.6034 30.66 69.6034 30.62C69.6034 30.58 69.6034 30.5433 69.6034 30.51C69.6034 30.2967 69.5301 30.1433 69.3834 30.05C69.2434 29.9567 69.0134 29.91 68.6934 29.91H67.9934C67.4601 29.91 67.0468 29.78 66.7534 29.52C66.4601 29.2533 66.3134 28.8933 66.3134 28.44C66.3134 28.3067 66.3234 28.17 66.3434 28.03L66.4434 27.42C66.5168 26.94 66.6634 26.5667 66.8834 26.3C67.1101 26.0267 67.4001 25.8367 67.7534 25.73C68.1068 25.6167 68.5168 25.56 68.9834 25.56C69.1301 25.56 69.2968 25.5667 69.4834 25.58C69.6701 25.5867 69.8634 25.6 70.0634 25.62C70.2634 25.64 70.4601 25.6633 70.6534 25.69C70.8534 25.7167 71.0368 25.75 71.2034 25.79L71.0534 26.76C70.8334 26.74 70.5868 26.7267 70.3134 26.72C70.0401 26.7067 69.7734 26.6967 69.5134 26.69C69.2534 26.6833 69.0301 26.68 68.8434 26.68C68.6101 26.68 68.4068 26.7033 68.2334 26.75C68.0668 26.7967 67.9268 26.8833 67.8134 27.01C67.7068 27.1367 67.6368 27.32 67.6034 27.56L67.5534 27.89C67.5468 27.9367 67.5401 27.98 67.5334 28.02C67.5268 28.06 67.5234 28.1 67.5234 28.14C67.5234 28.3533 67.5834 28.5067 67.7034 28.6C67.8301 28.6867 68.0234 28.73 68.2834 28.73H69.0134C69.6134 28.73 70.0634 28.8667 70.3634 29.14C70.6634 29.4067 70.8134 29.7633 70.8134 30.21C70.8134 30.33 70.8034 30.4633 70.7834 30.61L70.6734 31.3C70.6134 31.72 70.4801 32.06 70.2734 32.32C70.0668 32.5733 69.7834 32.76 69.4234 32.88C69.0634 33 68.6101 33.06 68.0634 33.06ZM72.3163 26.79C72.263 26.79 72.2197 26.7733 72.1863 26.74C72.153 26.7067 72.143 26.6633 72.1563 26.61L72.2963 25.7C72.323 25.5667 72.3963 25.5 72.5163 25.5H73.4563C73.5163 25.5 73.5563 25.52 73.5763 25.56C73.603 25.6 73.6097 25.6467 73.5963 25.7L73.4563 26.61C73.4363 26.73 73.3697 26.79 73.2563 26.79H72.3163ZM71.1763 33L72.0163 27.64H73.2563L72.4163 33H71.1763ZM75.7687 33.06C75.2553 33.06 74.842 32.9867 74.5287 32.84C74.2153 32.6867 73.9853 32.4633 73.8387 32.17C73.6987 31.8767 73.6287 31.52 73.6287 31.1C73.6287 30.9133 73.6387 30.7333 73.6587 30.56C73.6787 30.38 73.702 30.2067 73.7287 30.04C73.8153 29.4733 73.9753 29.01 74.2087 28.65C74.442 28.2833 74.7487 28.0133 75.1287 27.84C75.5153 27.66 75.972 27.57 76.4987 27.57C76.772 27.57 77.0287 27.5933 77.2687 27.64C77.5087 27.6867 77.7187 27.7667 77.8987 27.88C78.0853 27.9933 78.232 28.1533 78.3387 28.36C78.4453 28.56 78.4987 28.8133 78.4987 29.12C78.4987 29.4867 78.4353 29.79 78.3087 30.03C78.182 30.2633 78.0053 30.4433 77.7787 30.57C77.5587 30.6967 77.3053 30.7867 77.0187 30.84C76.732 30.8867 76.432 30.91 76.1187 30.91C75.852 30.91 75.6087 30.9 75.3887 30.88C75.1687 30.8533 74.9987 30.8233 74.8787 30.79C74.8653 30.8633 74.8553 30.94 74.8487 31.02C74.8487 31.0933 74.8487 31.1667 74.8487 31.24C74.8487 31.5533 74.9553 31.7833 75.1687 31.93C75.3887 32.07 75.7487 32.14 76.2487 32.14H77.9287L77.8087 32.87C77.5687 32.9167 77.2687 32.96 76.9087 33C76.5487 33.04 76.1687 33.06 75.7687 33.06ZM75.7787 30.2C76.1253 30.2 76.412 30.17 76.6387 30.11C76.872 30.05 77.0487 29.95 77.1687 29.81C77.2887 29.67 77.3487 29.4833 77.3487 29.25C77.3487 28.9967 77.272 28.8133 77.1187 28.7C76.9653 28.58 76.732 28.52 76.4187 28.52C76.112 28.52 75.8587 28.5833 75.6587 28.71C75.4653 28.83 75.312 29.01 75.1987 29.25C75.092 29.49 75.012 29.7833 74.9587 30.13C75.072 30.15 75.1987 30.1667 75.3387 30.18C75.4853 30.1933 75.632 30.2 75.7787 30.2ZM75.1187 26.69L76.4787 25.3H77.3287L78.1387 26.69H77.4087L76.7987 25.86L75.8587 26.69H75.1187ZM80.3172 33.06C79.8572 33.06 79.5172 32.95 79.2972 32.73C79.0839 32.5033 78.9772 32.1933 78.9772 31.8C78.9772 31.6733 78.9805 31.5633 78.9872 31.47C79.0005 31.37 79.0139 31.2767 79.0272 31.19L79.5872 27.64H80.8272L80.2972 31.05C80.2905 31.09 80.2839 31.13 80.2772 31.17C80.2772 31.21 80.2772 31.2567 80.2772 31.31C80.2772 31.53 80.3405 31.6933 80.4672 31.8C80.5939 31.9 80.7772 31.95 81.0172 31.95C81.2972 31.95 81.5472 31.9067 81.7672 31.82C81.9872 31.7333 82.2072 31.6167 82.4272 31.47L83.0372 27.64H84.2772L83.4272 33H82.3372L82.2772 32.44C82.0839 32.5667 81.8905 32.6767 81.6972 32.77C81.5105 32.8633 81.3072 32.9367 81.0872 32.99C80.8672 33.0367 80.6105 33.06 80.3172 33.06ZM86.7984 33L87.9684 25.62H88.9684L91.4884 30.9L92.3284 25.62H93.5684L92.3984 33H91.3984L88.8784 27.71L88.0384 33H86.7984ZM93.4244 33L94.6344 25.37H95.8744L95.4144 28.2C95.6544 28.0333 95.941 27.8867 96.2744 27.76C96.6077 27.6333 96.9744 27.57 97.3744 27.57C97.8077 27.57 98.1377 27.6767 98.3644 27.89C98.5977 28.1033 98.7144 28.44 98.7144 28.9C98.7144 29.0667 98.701 29.26 98.6744 29.48L98.1044 33H96.8744L97.3944 29.63C97.4077 29.5833 97.4144 29.5367 97.4144 29.49C97.421 29.4433 97.4244 29.4 97.4244 29.36C97.4244 29.1067 97.3577 28.93 97.2244 28.83C97.091 28.73 96.9144 28.68 96.6944 28.68C96.4144 28.68 96.1644 28.7233 95.9444 28.81C95.7244 28.8967 95.501 29.0167 95.2744 29.17L94.6644 33H93.4244ZM100.794 33.06C100.521 33.06 100.271 32.9967 100.044 32.87C99.8173 32.7433 99.634 32.5467 99.494 32.28C99.3607 32.0067 99.294 31.6567 99.294 31.23C99.294 31.0433 99.3073 30.85 99.334 30.65C99.3607 30.45 99.384 30.28 99.404 30.14C99.4973 29.56 99.654 29.0833 99.874 28.71C100.094 28.33 100.394 28.0467 100.774 27.86C101.161 27.6733 101.641 27.58 102.214 27.58C102.494 27.58 102.771 27.6067 103.044 27.66C103.324 27.7067 103.581 27.7767 103.814 27.87C104.047 27.9633 104.244 28.0733 104.404 28.2L103.644 33H102.554L102.494 32.45C102.401 32.5233 102.261 32.61 102.074 32.71C101.887 32.8033 101.681 32.8867 101.454 32.96C101.234 33.0267 101.014 33.06 100.794 33.06ZM101.374 32.06C101.627 32.06 101.854 32.0167 102.054 31.93C102.254 31.8367 102.441 31.74 102.614 31.64L103.064 28.79C102.991 28.75 102.874 28.7067 102.714 28.66C102.554 28.6067 102.367 28.58 102.154 28.58C101.827 28.58 101.561 28.6433 101.354 28.77C101.154 28.8967 100.994 29.0833 100.874 29.33C100.761 29.57 100.674 29.8733 100.614 30.24C100.587 30.4 100.567 30.5467 100.554 30.68C100.541 30.8133 100.534 30.9233 100.534 31.01C100.534 31.33 100.604 31.5867 100.744 31.78C100.891 31.9667 101.101 32.06 101.374 32.06ZM104.658 33L105.498 27.64H106.518L106.648 28.2C106.901 28.0267 107.191 27.88 107.518 27.76C107.844 27.6333 108.201 27.57 108.588 27.57C108.894 27.57 109.148 27.6233 109.348 27.73C109.554 27.8367 109.704 27.9833 109.798 28.17C109.898 28.35 109.948 28.56 109.948 28.8C109.948 28.9 109.941 29.02 109.928 29.16C109.921 29.2933 109.894 29.52 109.848 29.84L109.338 33H108.108L108.598 29.88C108.618 29.72 108.631 29.6033 108.638 29.53C108.651 29.4567 108.658 29.3967 108.658 29.35C108.658 29.1567 108.601 28.9967 108.488 28.87C108.374 28.7433 108.178 28.68 107.898 28.68C107.631 28.68 107.388 28.7233 107.168 28.81C106.948 28.8967 106.728 29.0167 106.508 29.17L105.898 33H104.658ZM110.357 33L111.567 25.37H112.807L112.347 28.2C112.587 28.0333 112.874 27.8867 113.207 27.76C113.541 27.6333 113.907 27.57 114.307 27.57C114.741 27.57 115.071 27.6767 115.297 27.89C115.531 28.1033 115.647 28.44 115.647 28.9C115.647 29.0667 115.634 29.26 115.607 29.48L115.037 33H113.807L114.327 29.63C114.341 29.5833 114.347 29.5367 114.347 29.49C114.354 29.4433 114.357 29.4 114.357 29.36C114.357 29.1067 114.291 28.93 114.157 28.83C114.024 28.73 113.847 28.68 113.627 28.68C113.347 28.68 113.097 28.7233 112.877 28.81C112.657 28.8967 112.434 29.0167 112.207 29.17L111.597 33H110.357ZM116.327 33.85C116.22 33.85 116.13 33.84 116.057 33.82C115.983 33.8067 115.947 33.8 115.947 33.8L116.007 33.41C116.093 33.41 116.157 33.3967 116.197 33.37C116.243 33.3433 116.273 33.2933 116.287 33.22L116.327 32.92H116.237C116.13 32.92 116.077 32.8667 116.077 32.76C116.077 32.7467 116.077 32.7267 116.077 32.7C116.083 32.6733 116.09 32.6433 116.097 32.61L116.217 31.9C116.23 31.76 116.303 31.69 116.437 31.69H117.137C117.243 31.69 117.297 31.74 117.297 31.84C117.297 31.8533 117.293 31.8767 117.287 31.91C117.287 31.9367 117.283 31.97 117.277 32.01L117.077 33.22C117.05 33.3933 116.997 33.5267 116.917 33.62C116.837 33.7133 116.743 33.7733 116.637 33.8C116.53 33.8333 116.427 33.85 116.327 33.85ZM122.685 33.06C121.992 33.06 121.499 32.8733 121.205 32.5C120.919 32.1267 120.775 31.5433 120.775 30.75C120.775 30.4767 120.789 30.1967 120.815 29.91C120.849 29.6167 120.889 29.3267 120.935 29.04C121.062 28.2867 121.255 27.65 121.515 27.13C121.775 26.61 122.119 26.2167 122.545 25.95C122.972 25.6833 123.495 25.55 124.115 25.55C124.709 25.55 125.195 25.5833 125.575 25.65C125.955 25.71 126.295 25.7867 126.595 25.88L126.445 26.84C126.212 26.7933 125.912 26.75 125.545 26.71C125.185 26.67 124.752 26.65 124.245 26.65C123.792 26.65 123.429 26.7467 123.155 26.94C122.889 27.1267 122.679 27.4167 122.525 27.81C122.379 28.1967 122.255 28.7 122.155 29.32C122.069 29.8733 122.025 30.3233 122.025 30.67C122.025 31.0833 122.109 31.3967 122.275 31.61C122.442 31.8167 122.722 31.92 123.115 31.92C123.249 31.92 123.395 31.91 123.555 31.89C123.722 31.87 123.882 31.8467 124.035 31.82C124.195 31.7867 124.339 31.7567 124.465 31.73C124.599 31.6967 124.705 31.6667 124.785 31.64L125.055 29.93H123.565L123.715 28.96C123.895 28.94 124.125 28.9233 124.405 28.91C124.685 28.89 125.015 28.88 125.395 28.88C125.495 28.88 125.609 28.8833 125.735 28.89C125.862 28.89 125.985 28.8933 126.105 28.9C126.225 28.9 126.325 28.9 126.405 28.9L125.755 33H124.835L124.735 32.49C124.642 32.5433 124.512 32.6033 124.345 32.67C124.185 32.7367 124.009 32.8 123.815 32.86C123.622 32.9133 123.425 32.96 123.225 33C123.032 33.04 122.852 33.06 122.685 33.06ZM127.938 26.79C127.885 26.79 127.842 26.7733 127.808 26.74C127.775 26.7067 127.765 26.6633 127.778 26.61L127.918 25.7C127.945 25.5667 128.018 25.5 128.138 25.5H129.078C129.138 25.5 129.178 25.52 129.198 25.56C129.225 25.6 129.232 25.6467 129.218 25.7L129.078 26.61C129.058 26.73 128.992 26.79 128.878 26.79H127.938ZM126.798 33L127.638 27.64H128.878L128.038 33H126.798ZM130.721 33.06C130.447 33.06 130.197 32.9967 129.971 32.87C129.744 32.7433 129.561 32.5467 129.421 32.28C129.287 32.0067 129.221 31.6567 129.221 31.23C129.221 31.0433 129.234 30.85 129.261 30.65C129.287 30.45 129.311 30.28 129.331 30.14C129.424 29.56 129.581 29.0833 129.801 28.71C130.021 28.33 130.321 28.0467 130.701 27.86C131.087 27.6733 131.567 27.58 132.141 27.58C132.421 27.58 132.697 27.6067 132.971 27.66C133.251 27.7067 133.507 27.7767 133.741 27.87C133.974 27.9633 134.171 28.0733 134.331 28.2L133.571 33H132.481L132.421 32.45C132.327 32.5233 132.187 32.61 132.001 32.71C131.814 32.8033 131.607 32.8867 131.381 32.96C131.161 33.0267 130.941 33.06 130.721 33.06ZM131.301 32.06C131.554 32.06 131.781 32.0167 131.981 31.93C132.181 31.8367 132.367 31.74 132.541 31.64L132.991 28.79C132.917 28.75 132.801 28.7067 132.641 28.66C132.481 28.6067 132.294 28.58 132.081 28.58C131.754 28.58 131.487 28.6433 131.281 28.77C131.081 28.8967 130.921 29.0833 130.801 29.33C130.687 29.57 130.601 29.8733 130.541 30.24C130.514 30.4 130.494 30.5467 130.481 30.68C130.467 30.8133 130.461 30.9233 130.461 31.01C130.461 31.33 130.531 31.5867 130.671 31.78C130.817 31.9667 131.027 32.06 131.301 32.06ZM131.871 26.69L132.931 25.3H134.001L132.651 26.69H131.871ZM139.316 33.06C138.996 33.06 138.686 33.0467 138.386 33.02C138.086 33 137.812 32.9767 137.566 32.95C137.319 32.9167 137.106 32.88 136.926 32.84L137.076 31.87C137.376 31.8967 137.726 31.9167 138.126 31.93C138.526 31.9433 138.919 31.95 139.306 31.95C139.599 31.95 139.849 31.9267 140.056 31.88C140.269 31.8333 140.436 31.7467 140.556 31.62C140.676 31.4933 140.752 31.3133 140.786 31.08L140.836 30.74C140.849 30.7 140.856 30.66 140.856 30.62C140.856 30.58 140.856 30.5433 140.856 30.51C140.856 30.2967 140.782 30.1433 140.636 30.05C140.496 29.9567 140.266 29.91 139.946 29.91H139.246C138.712 29.91 138.299 29.78 138.006 29.52C137.712 29.2533 137.566 28.8933 137.566 28.44C137.566 28.3067 137.576 28.17 137.596 28.03L137.696 27.42C137.769 26.94 137.916 26.5667 138.136 26.3C138.362 26.0267 138.652 25.8367 139.006 25.73C139.359 25.6167 139.769 25.56 140.236 25.56C140.382 25.56 140.549 25.5667 140.736 25.58C140.922 25.5867 141.116 25.6 141.316 25.62C141.516 25.64 141.712 25.6633 141.906 25.69C142.106 25.7167 142.289 25.75 142.456 25.79L142.306 26.76C142.086 26.74 141.839 26.7267 141.566 26.72C141.292 26.7067 141.026 26.6967 140.766 26.69C140.506 26.6833 140.282 26.68 140.096 26.68C139.862 26.68 139.659 26.7033 139.486 26.75C139.319 26.7967 139.179 26.8833 139.066 27.01C138.959 27.1367 138.889 27.32 138.856 27.56L138.806 27.89C138.799 27.9367 138.792 27.98 138.786 28.02C138.779 28.06 138.776 28.1 138.776 28.14C138.776 28.3533 138.836 28.5067 138.956 28.6C139.082 28.6867 139.276 28.73 139.536 28.73H140.266C140.866 28.73 141.316 28.8667 141.616 29.14C141.916 29.4067 142.066 29.7633 142.066 30.21C142.066 30.33 142.056 30.4633 142.036 30.61L141.926 31.3C141.866 31.72 141.732 32.06 141.526 32.32C141.319 32.5733 141.036 32.76 140.676 32.88C140.316 33 139.862 33.06 139.316 33.06ZM143.569 26.79C143.515 26.79 143.472 26.7733 143.439 26.74C143.405 26.7067 143.395 26.6633 143.409 26.61L143.549 25.7C143.575 25.5667 143.649 25.5 143.769 25.5H144.709C144.769 25.5 144.809 25.52 144.829 25.56C144.855 25.6 144.862 25.6467 144.849 25.7L144.709 26.61C144.689 26.73 144.622 26.79 144.509 26.79H143.569ZM142.429 33L143.269 27.64H144.509L143.669 33H142.429ZM147.021 33.06C146.508 33.06 146.094 32.9867 145.781 32.84C145.468 32.6867 145.238 32.4633 145.091 32.17C144.951 31.8767 144.881 31.52 144.881 31.1C144.881 30.9133 144.891 30.7333 144.911 30.56C144.931 30.38 144.954 30.2067 144.981 30.04C145.068 29.4733 145.228 29.01 145.461 28.65C145.694 28.2833 146.001 28.0133 146.381 27.84C146.768 27.66 147.224 27.57 147.751 27.57C148.024 27.57 148.281 27.5933 148.521 27.64C148.761 27.6867 148.971 27.7667 149.151 27.88C149.338 27.9933 149.484 28.1533 149.591 28.36C149.698 28.56 149.751 28.8133 149.751 29.12C149.751 29.4867 149.688 29.79 149.561 30.03C149.434 30.2633 149.258 30.4433 149.031 30.57C148.811 30.6967 148.558 30.7867 148.271 30.84C147.984 30.8867 147.684 30.91 147.371 30.91C147.104 30.91 146.861 30.9 146.641 30.88C146.421 30.8533 146.251 30.8233 146.131 30.79C146.118 30.8633 146.108 30.94 146.101 31.02C146.101 31.0933 146.101 31.1667 146.101 31.24C146.101 31.5533 146.208 31.7833 146.421 31.93C146.641 32.07 147.001 32.14 147.501 32.14H149.181L149.061 32.87C148.821 32.9167 148.521 32.96 148.161 33C147.801 33.04 147.421 33.06 147.021 33.06ZM147.031 30.2C147.378 30.2 147.664 30.17 147.891 30.11C148.124 30.05 148.301 29.95 148.421 29.81C148.541 29.67 148.601 29.4833 148.601 29.25C148.601 28.9967 148.524 28.8133 148.371 28.7C148.218 28.58 147.984 28.52 147.671 28.52C147.364 28.52 147.111 28.5833 146.911 28.71C146.718 28.83 146.564 29.01 146.451 29.25C146.344 29.49 146.264 29.7833 146.211 30.13C146.324 30.15 146.451 30.1667 146.591 30.18C146.738 30.1933 146.884 30.2 147.031 30.2ZM146.371 26.69L147.731 25.3H148.581L149.391 26.69H148.661L148.051 25.86L147.111 26.69H146.371ZM151.57 33.06C151.11 33.06 150.77 32.95 150.55 32.73C150.336 32.5033 150.23 32.1933 150.23 31.8C150.23 31.6733 150.233 31.5633 150.24 31.47C150.253 31.37 150.266 31.2767 150.28 31.19L150.84 27.64H152.08L151.55 31.05C151.543 31.09 151.536 31.13 151.53 31.17C151.53 31.21 151.53 31.2567 151.53 31.31C151.53 31.53 151.593 31.6933 151.72 31.8C151.846 31.9 152.03 31.95 152.27 31.95C152.55 31.95 152.8 31.9067 153.02 31.82C153.24 31.7333 153.46 31.6167 153.68 31.47L154.29 27.64H155.53L154.68 33H153.59L153.53 32.44C153.336 32.5667 153.143 32.6767 152.95 32.77C152.763 32.8633 152.56 32.9367 152.34 32.99C152.12 33.0367 151.863 33.06 151.57 33.06ZM159.771 33L160.761 26.73H158.631L158.811 25.62H164.311L164.131 26.73H162.001L161.011 33H159.771ZM165.687 33.06C165.247 33.06 164.873 32.9933 164.567 32.86C164.26 32.7267 164.027 32.5267 163.867 32.26C163.707 31.9867 163.627 31.6367 163.627 31.21C163.627 31.03 163.633 30.86 163.647 30.7C163.66 30.5333 163.68 30.37 163.707 30.21C163.793 29.67 163.91 29.23 164.057 28.89C164.203 28.55 164.39 28.2867 164.617 28.1C164.843 27.9067 165.113 27.7733 165.427 27.7C165.747 27.62 166.12 27.58 166.547 27.58C167.087 27.58 167.503 27.65 167.797 27.79C168.097 27.93 168.303 28.1433 168.417 28.43C168.537 28.7167 168.597 29.0767 168.597 29.51C168.597 29.67 168.59 29.84 168.577 30.02C168.563 30.2 168.54 30.3867 168.507 30.58C168.407 31.2333 168.243 31.74 168.017 32.1C167.79 32.46 167.487 32.71 167.107 32.85C166.733 32.99 166.26 33.06 165.687 33.06ZM165.827 32.06C166.04 32.06 166.227 32.0367 166.387 31.99C166.547 31.9433 166.68 31.8633 166.787 31.75C166.9 31.63 166.993 31.46 167.067 31.24C167.147 31.02 167.217 30.74 167.277 30.4C167.303 30.2067 167.323 30.0367 167.337 29.89C167.357 29.7367 167.367 29.5933 167.367 29.46C167.367 29.1267 167.29 28.8933 167.137 28.76C166.983 28.6267 166.73 28.56 166.377 28.56C166.15 28.56 165.957 28.5867 165.797 28.64C165.643 28.6933 165.51 28.7867 165.397 28.92C165.283 29.0467 165.19 29.2333 165.117 29.48C165.043 29.72 164.977 30.0267 164.917 30.4C164.897 30.5467 164.88 30.6833 164.867 30.81C164.853 30.93 164.847 31.0467 164.847 31.16C164.847 31.4 164.887 31.5867 164.967 31.72C165.047 31.8467 165.157 31.9367 165.297 31.99C165.443 32.0367 165.62 32.06 165.827 32.06ZM165.037 26.69L166.337 25.64H167.187L168.057 26.69H167.327L166.657 26.2L165.767 26.69H165.037ZM167.617 25.87L168.427 24.6H169.387L168.287 25.87H167.617ZM171.16 33C170.653 33 170.273 32.9033 170.02 32.71C169.766 32.51 169.64 32.21 169.64 31.81C169.64 31.6833 169.646 31.5467 169.66 31.4C169.68 31.2467 169.703 31.08 169.73 30.9L170.14 28.64H169.29L169.42 27.84L170.33 27.64L170.74 26.14H171.71L171.47 27.64H172.83L172.68 28.64H171.32L170.96 30.91C170.946 30.9833 170.93 31.0767 170.91 31.19C170.896 31.2967 170.89 31.3933 170.89 31.48C170.89 31.66 170.936 31.7933 171.03 31.88C171.123 31.96 171.266 32.01 171.46 32.03L172.08 32.09L171.93 33H171.16Z" fill="#2F6DA8"/>
<path d="M47.743 17.102C46.5417 17.102 45.6917 16.779 45.193 16.133C44.7057 15.487 44.462 14.4783 44.462 13.107C44.462 12.6083 44.4903 12.104 44.547 11.594C44.615 11.0727 44.6887 10.574 44.768 10.098C44.9833 8.78333 45.3233 7.701 45.788 6.851C46.264 5.98967 46.876 5.34933 47.624 4.93C48.3833 4.49933 49.2843 4.284 50.327 4.284C51.415 4.284 52.2933 4.34633 52.962 4.471C53.642 4.58433 54.237 4.72033 54.747 4.879L54.39 7.174C54.0613 7.11733 53.591 7.06067 52.979 7.004C52.3783 6.936 51.619 6.902 50.701 6.902C50.021 6.902 49.4827 7.021 49.086 7.259C48.6893 7.497 48.389 7.89933 48.185 8.466C47.981 9.02133 47.7997 9.78067 47.641 10.744C47.505 11.628 47.437 12.325 47.437 12.835C47.437 13.3223 47.539 13.7077 47.743 13.991C47.9583 14.263 48.304 14.399 48.78 14.399C48.9727 14.399 49.1767 14.3877 49.392 14.365C49.6187 14.3423 49.8397 14.3197 50.055 14.297C50.2703 14.2743 50.463 14.2517 50.633 14.229C50.803 14.195 50.9447 14.161 51.058 14.127L51.381 12.104H49.392L49.766 9.792C50.0607 9.758 50.446 9.724 50.922 9.69C51.4093 9.64467 51.9647 9.622 52.588 9.622C52.7807 9.622 53.0073 9.62767 53.268 9.639C53.5287 9.639 53.778 9.64467 54.016 9.656C54.254 9.656 54.441 9.656 54.577 9.656L53.421 17H51.211L50.956 16.15C50.786 16.252 50.565 16.3597 50.293 16.473C50.0323 16.5863 49.749 16.6883 49.443 16.779C49.1483 16.8697 48.848 16.9433 48.542 17C48.2473 17.068 47.981 17.102 47.743 17.102ZM57.0779 6.613C56.9759 6.613 56.8909 6.579 56.8229 6.511C56.7662 6.443 56.7492 6.35233 56.7719 6.239L57.0439 4.454C57.0892 4.19333 57.2365 4.063 57.4859 4.063H59.7639C59.8885 4.063 59.9735 4.10267 60.0189 4.182C60.0642 4.25 60.0755 4.34067 60.0529 4.454L59.7809 6.239C59.7355 6.48833 59.5995 6.613 59.3729 6.613H57.0779ZM55.1059 17L56.5339 7.854H59.4749L58.0299 17H55.1059ZM62.4087 17.102C61.978 17.102 61.5757 16.9943 61.2017 16.779C60.839 16.5523 60.5444 16.2067 60.3177 15.742C60.1024 15.2773 59.9947 14.671 59.9947 13.923C59.9947 13.583 60.0174 13.2317 60.0627 12.869C60.1194 12.5063 60.1647 12.2117 60.1987 11.985C60.346 11.033 60.6124 10.2453 60.9977 9.622C61.3944 8.99867 61.927 8.534 62.5957 8.228C63.2757 7.91067 64.103 7.752 65.0777 7.752C65.633 7.752 66.1657 7.803 66.6757 7.905C67.1857 7.99567 67.6447 8.126 68.0527 8.296C68.4607 8.45467 68.8007 8.64167 69.0727 8.857L67.7807 17H65.1627L64.9927 16.099C64.834 16.2463 64.613 16.3993 64.3297 16.558C64.0577 16.7053 63.7517 16.8357 63.4117 16.949C63.083 17.051 62.7487 17.102 62.4087 17.102ZM63.8877 14.756C64.1937 14.756 64.46 14.6937 64.6867 14.569C64.9247 14.4443 65.123 14.3197 65.2817 14.195L65.8937 10.285C65.8257 10.251 65.7067 10.2113 65.5367 10.166C65.3667 10.1207 65.1684 10.098 64.9417 10.098C64.5677 10.098 64.256 10.183 64.0067 10.353C63.7574 10.523 63.5534 10.761 63.3947 11.067C63.2474 11.373 63.1397 11.7413 63.0717 12.172C63.0264 12.4213 62.9924 12.6593 62.9697 12.886C62.947 13.1013 62.9357 13.2713 62.9357 13.396C62.9357 13.7587 63.0037 14.076 63.1397 14.348C63.287 14.62 63.5364 14.756 63.8877 14.756ZM73.4968 17.102C72.6808 17.102 71.9951 16.983 71.4398 16.745C70.8958 16.4957 70.4878 16.133 70.2158 15.657C69.9438 15.181 69.8078 14.5917 69.8078 13.889C69.8078 13.549 69.8191 13.2373 69.8418 12.954C69.8645 12.6707 69.8985 12.3987 69.9438 12.138C70.0911 11.22 70.2951 10.4777 70.5558 9.911C70.8165 9.333 71.1451 8.891 71.5418 8.585C71.9385 8.26767 72.4201 8.05233 72.9868 7.939C73.5535 7.81433 74.2108 7.752 74.9588 7.752C75.9675 7.752 76.7325 7.87667 77.2538 8.126C77.7865 8.364 78.1435 8.73233 78.3248 9.231C78.5175 9.72967 78.6138 10.3587 78.6138 11.118C78.6138 11.39 78.6025 11.6847 78.5798 12.002C78.5571 12.3193 78.5175 12.6423 78.4608 12.971C78.2908 14.0817 78.0018 14.9373 77.5938 15.538C77.1971 16.1387 76.6645 16.5523 75.9958 16.779C75.3271 16.9943 74.4941 17.102 73.4968 17.102ZM73.8028 14.756C74.0748 14.756 74.3071 14.722 74.4998 14.654C74.6925 14.586 74.8511 14.4783 74.9758 14.331C75.1005 14.1723 75.2081 13.9513 75.2988 13.668C75.3895 13.3733 75.4688 12.9993 75.5368 12.546C75.5935 12.2287 75.6331 11.9453 75.6558 11.696C75.6785 11.4467 75.6898 11.2143 75.6898 10.999C75.6898 10.6363 75.5991 10.387 75.4178 10.251C75.2478 10.115 74.9645 10.047 74.5678 10.047C74.2845 10.047 74.0465 10.081 73.8538 10.149C73.6725 10.217 73.5195 10.3417 73.3948 10.523C73.2701 10.7043 73.1625 10.965 73.0718 11.305C72.9811 11.6337 72.9018 12.0473 72.8338 12.546C72.7885 12.784 72.7545 12.9993 72.7318 13.192C72.7205 13.3847 72.7148 13.5717 72.7148 13.753C72.7148 14.0137 72.7545 14.2177 72.8338 14.365C72.9131 14.5123 73.0321 14.6143 73.1908 14.671C73.3495 14.7277 73.5535 14.756 73.8028 14.756ZM79.4153 17L81.4213 4.386H84.3623L83.5463 9.418H87.7453L88.5613 4.386H91.5023L89.4963 17H86.5553L87.3373 12.053H83.1383L82.3563 17H79.4153ZM93.9196 17.102C93.489 17.102 93.0866 16.9943 92.7126 16.779C92.35 16.5523 92.0553 16.2067 91.8286 15.742C91.6133 15.2773 91.5056 14.671 91.5056 13.923C91.5056 13.583 91.5283 13.2317 91.5736 12.869C91.6303 12.5063 91.6756 12.2117 91.7096 11.985C91.857 11.033 92.1233 10.2453 92.5086 9.622C92.9053 8.99867 93.438 8.534 94.1066 8.228C94.7866 7.91067 95.614 7.752 96.5886 7.752C97.144 7.752 97.6766 7.803 98.1866 7.905C98.6966 7.99567 99.1556 8.126 99.5636 8.296C99.9716 8.45467 100.312 8.64167 100.584 8.857L99.2916 17H96.6736L96.5036 16.099C96.345 16.2463 96.124 16.3993 95.8406 16.558C95.5686 16.7053 95.2626 16.8357 94.9226 16.949C94.594 17.051 94.2596 17.102 93.9196 17.102ZM95.3986 14.756C95.7046 14.756 95.971 14.6937 96.1976 14.569C96.4356 14.4443 96.634 14.3197 96.7926 14.195L97.4046 10.285C97.3366 10.251 97.2176 10.2113 97.0476 10.166C96.8776 10.1207 96.6793 10.098 96.4526 10.098C96.0786 10.098 95.767 10.183 95.5176 10.353C95.2683 10.523 95.0643 10.761 94.9056 11.067C94.7583 11.373 94.6506 11.7413 94.5826 12.172C94.5373 12.4213 94.5033 12.6593 94.4806 12.886C94.458 13.1013 94.4466 13.2713 94.4466 13.396C94.4466 13.7587 94.5146 14.076 94.6506 14.348C94.798 14.62 95.0473 14.756 95.3986 14.756ZM100.945 17L102.373 7.854H104.821L105.178 8.755C105.54 8.47167 105.971 8.23367 106.47 8.041C106.98 7.84833 107.546 7.752 108.17 7.752C108.668 7.752 109.088 7.837 109.428 8.007C109.768 8.177 110.023 8.415 110.193 8.721C110.374 9.027 110.465 9.37833 110.465 9.775C110.465 9.979 110.453 10.2113 110.431 10.472C110.419 10.7327 110.363 11.1633 110.261 11.764L109.445 17H106.504L107.32 11.866C107.342 11.6733 107.359 11.526 107.371 11.424C107.382 11.3107 107.388 11.2257 107.388 11.169C107.388 10.9197 107.32 10.727 107.184 10.591C107.048 10.455 106.81 10.387 106.47 10.387C106.164 10.387 105.869 10.4493 105.586 10.574C105.302 10.6987 105.047 10.863 104.821 11.067L103.869 17H100.945ZM112.959 20.961L110.783 20.774L111.089 18.751H114.013C114.421 18.751 114.778 18.717 115.084 18.649C115.39 18.581 115.639 18.4563 115.832 18.275C116.024 18.0937 116.149 17.833 116.206 17.493L116.427 16.099C116.245 16.269 116.002 16.4333 115.696 16.592C115.401 16.7393 115.084 16.864 114.744 16.966C114.415 17.0567 114.098 17.102 113.792 17.102C113.248 17.102 112.8 16.9547 112.449 16.66C112.097 16.354 111.842 15.963 111.684 15.487C111.525 14.9997 111.446 14.4783 111.446 13.923C111.446 13.6283 111.468 13.2827 111.514 12.886C111.57 12.478 111.621 12.104 111.667 11.764C111.791 10.9707 112.001 10.3133 112.296 9.792C112.602 9.27067 112.97 8.86267 113.401 8.568C113.843 8.27333 114.324 8.06367 114.846 7.939C115.367 7.81433 115.911 7.752 116.478 7.752C117.362 7.752 118.161 7.82 118.875 7.956C119.589 8.092 120.161 8.23367 120.592 8.381L119.062 17.952C118.96 18.564 118.761 19.0797 118.467 19.499C118.183 19.9297 117.792 20.264 117.294 20.502C116.795 20.7513 116.189 20.91 115.475 20.978C114.761 21.046 113.922 21.0403 112.959 20.961ZM115.322 14.756C115.594 14.756 115.843 14.6993 116.07 14.586C116.308 14.4727 116.523 14.3423 116.716 14.195L117.345 10.217C117.186 10.183 117.016 10.1547 116.835 10.132C116.665 10.1093 116.5 10.098 116.342 10.098C116.058 10.098 115.792 10.166 115.543 10.302C115.305 10.4267 115.095 10.6363 114.914 10.931C114.744 11.2143 114.613 11.5997 114.523 12.087C114.477 12.4383 114.438 12.699 114.404 12.869C114.381 13.039 114.37 13.2203 114.37 13.413C114.37 13.8663 114.455 14.2063 114.625 14.433C114.795 14.6483 115.027 14.756 115.322 14.756ZM121.103 17L123.109 4.386H125.438L129.059 12.019L130.266 4.386H133.207L131.201 17H128.872L125.251 9.367L124.044 17H121.103ZM132.904 17L134.961 4.029H137.885L137.137 8.755C137.466 8.49433 137.885 8.262 138.395 8.058C138.916 7.854 139.506 7.752 140.163 7.752C140.888 7.752 141.444 7.92767 141.829 8.279C142.226 8.63033 142.424 9.21967 142.424 10.047C142.424 10.3643 142.39 10.7327 142.322 11.152L141.404 17H138.463L139.33 11.492C139.341 11.4353 139.347 11.3843 139.347 11.339C139.347 11.2823 139.347 11.2257 139.347 11.169C139.347 10.863 139.268 10.659 139.109 10.557C138.95 10.4437 138.746 10.387 138.497 10.387C138.146 10.387 137.828 10.4493 137.545 10.574C137.273 10.6873 137.018 10.8517 136.78 11.067L135.828 17H132.904ZM145.785 17.102C145.354 17.102 144.952 16.9943 144.578 16.779C144.215 16.5523 143.921 16.2067 143.694 15.742C143.479 15.2773 143.371 14.671 143.371 13.923C143.371 13.583 143.394 13.2317 143.439 12.869C143.496 12.5063 143.541 12.2117 143.575 11.985C143.722 11.033 143.989 10.2453 144.374 9.622C144.771 8.99867 145.303 8.534 145.972 8.228C146.652 7.91067 147.479 7.752 148.454 7.752C149.009 7.752 149.542 7.803 150.052 7.905C150.562 7.99567 151.021 8.126 151.429 8.296C151.837 8.45467 152.177 8.64167 152.449 8.857L151.157 17H148.539L148.369 16.099C148.21 16.2463 147.989 16.3993 147.706 16.558C147.434 16.7053 147.128 16.8357 146.788 16.949C146.459 17.051 146.125 17.102 145.785 17.102ZM147.264 14.756C147.57 14.756 147.836 14.6937 148.063 14.569C148.301 14.4443 148.499 14.3197 148.658 14.195L149.27 10.285C149.202 10.251 149.083 10.2113 148.913 10.166C148.743 10.1207 148.545 10.098 148.318 10.098C147.944 10.098 147.632 10.183 147.383 10.353C147.134 10.523 146.93 10.761 146.771 11.067C146.624 11.373 146.516 11.7413 146.448 12.172C146.403 12.4213 146.369 12.6593 146.346 12.886C146.323 13.1013 146.312 13.2713 146.312 13.396C146.312 13.7587 146.38 14.076 146.516 14.348C146.663 14.62 146.913 14.756 147.264 14.756ZM152.81 17L154.238 7.854H156.686L157.043 8.755C157.406 8.47167 157.836 8.23367 158.335 8.041C158.845 7.84833 159.412 7.752 160.035 7.752C160.534 7.752 160.953 7.837 161.293 8.007C161.633 8.177 161.888 8.415 162.058 8.721C162.239 9.027 162.33 9.37833 162.33 9.775C162.33 9.979 162.319 10.2113 162.296 10.472C162.285 10.7327 162.228 11.1633 162.126 11.764L161.31 17H158.369L159.185 11.866C159.208 11.6733 159.225 11.526 159.236 11.424C159.247 11.3107 159.253 11.2257 159.253 11.169C159.253 10.9197 159.185 10.727 159.049 10.591C158.913 10.455 158.675 10.387 158.335 10.387C158.029 10.387 157.734 10.4493 157.451 10.574C157.168 10.6987 156.913 10.863 156.686 11.067L155.734 17H152.81ZM162.954 17L165.011 4.029H167.935L167.187 8.755C167.516 8.49433 167.935 8.262 168.445 8.058C168.966 7.854 169.556 7.752 170.213 7.752C170.938 7.752 171.494 7.92767 171.879 8.279C172.276 8.63033 172.474 9.21967 172.474 10.047C172.474 10.3643 172.44 10.7327 172.372 11.152L171.454 17H168.513L169.38 11.492C169.391 11.4353 169.397 11.3843 169.397 11.339C169.397 11.2823 169.397 11.2257 169.397 11.169C169.397 10.863 169.318 10.659 169.159 10.557C169 10.4437 168.796 10.387 168.547 10.387C168.196 10.387 167.878 10.4493 167.595 10.574C167.323 10.6873 167.068 10.8517 166.83 11.067L165.878 17H162.954Z" fill="#FF5200"/>
<defs>
<linearGradient id="paint0_linear_1840_15820" x1="17.609" y1="3.05322" x2="17.609" y2="9.73102" gradientUnits="userSpaceOnUse">
<stop stop-color="#FFA300"/>
<stop offset="1" stop-color="#FF5200"/>
</linearGradient>
<linearGradient id="paint1_linear_1840_15820" x1="17.609" y1="9.73145" x2="17.609" y2="35.0002" gradientUnits="userSpaceOnUse">
<stop stop-color="#FFA900"/>
<stop offset="1" stop-color="#FF5200"/>
</linearGradient>
<linearGradient id="paint2_linear_1840_15820" x1="17.4999" y1="9.67773" x2="17.4999" y2="13.3105" gradientUnits="userSpaceOnUse">
<stop stop-color="#E2E2E2"/>
<stop offset="1" stop-color="white"/>
</linearGradient>
</defs>
</svg>
