<svg width="48" height="48" viewBox="0 0 48 48" fill="none" xmlns="http://www.w3.org/2000/svg">
<path d="M12.0939 9.29321C12.9108 8.49908 14.0148 8.05347 15.1655 8.05347H33.2517C34.4616 8.05347 35.6172 8.54603 36.4422 9.4134L41.5 14.7313H6.5L12.0939 9.29321Z" fill="url(#paint0_linear_6165_3550)"></path>
<path d="M6.5 14.7312H41.5V36.9015C41.5 38.6127 40.0843 40 38.338 40H9.66199C7.91567 40 6.5 38.6127 6.5 36.9015V14.7312Z" fill="url(#paint1_linear_6165_3550)"></path>
<path d="M22.1468 8H23.7823L23.2099 14.6778H19.748L22.1468 8Z" fill="white"></path>
<path d="M24.3271 8H25.9081L28.2251 14.6778H24.7633L24.3271 8Z" fill="white"></path>
<path d="M19.748 14.6777H24.0004H28.2527V23.439L24.0549 18.3906L19.748 23.439V14.6777Z" fill="url(#paint2_linear_6165_3550)"></path>
<path fill-rule="evenodd" clip-rule="evenodd" d="M19.748 24.4006H22.5829V28.5676H25.4178V24.4006H28.2527V34.818H26.2901C25.8084 34.818 25.4178 34.4353 25.4178 33.9632V30.5976H22.5829V33.9632C22.5829 34.4353 22.1924 34.818 21.7107 34.818H19.748V24.4006Z" fill="white"></path>
<path fill-rule="evenodd" clip-rule="evenodd" d="M29.0703 25.2554C29.0703 24.7833 29.4608 24.4006 29.9426 24.4006H29.9971H31.9052H31.9597L34.9582 30.8024V24.4006H36.9208C37.4025 24.4006 37.7931 24.7833 37.7931 25.2554V34.818H36.839H35.4358H35.4216L35.4215 34.8179C35.0863 34.8125 34.7833 34.6192 34.643 34.3198L31.9052 28.4745V33.9632C31.9052 34.4353 31.5147 34.818 31.0329 34.818H29.0703V25.2554Z" fill="white"></path>
<path fill-rule="evenodd" clip-rule="evenodd" d="M12.9329 24.4006C11.4274 24.4006 10.207 25.5965 10.207 27.0718V32.6811C10.207 33.7337 10.9837 34.6086 12.0061 34.7854V34.818H12.3877H13.0419H16.6401H16.8581H18.112C18.5938 34.818 18.9843 34.4353 18.9843 33.9632V28.5676H17.8394H16.6401H15.4407C15.1998 28.5676 15.0045 28.7589 15.0045 28.995V30.5976L16.6401 30.5976L16.6401 32.8414H13.6961L13.4951 32.7921C13.4548 32.7823 13.416 32.7675 13.3794 32.7482L13.3667 32.7415C13.2718 32.6915 13.1921 32.6177 13.1356 32.5277C13.1061 32.4808 13.0857 32.429 13.0753 32.3748L13.0419 32.2003V27.232L13.0766 27.0962C13.0898 27.0445 13.1095 26.9946 13.1352 26.9477L13.1761 26.8734C13.2489 26.7409 13.3561 26.6295 13.4869 26.5507L13.5384 26.5196C13.6066 26.4785 13.682 26.45 13.7607 26.4355L13.787 26.4307H18.9843V25.2554C18.9843 24.7833 18.5938 24.4006 18.112 24.4006H13.0419H12.9329Z" fill="white"></path>
<defs>
<linearGradient id="paint0_linear_6165_3550" x1="24.109" y1="8.05347" x2="24.109" y2="14.7313" gradientUnits="userSpaceOnUse">
<stop stop-color="#FFA300"></stop>
<stop offset="1" stop-color="#FF5200"></stop>
</linearGradient>
<linearGradient id="paint1_linear_6165_3550" x1="24.109" y1="14.7312" x2="24.109" y2="40" gradientUnits="userSpaceOnUse">
<stop stop-color="#FFA900"></stop>
<stop offset="1" stop-color="#FF5200"></stop>
</linearGradient>
<linearGradient id="paint2_linear_6165_3550" x1="24.0004" y1="14.6777" x2="24.0004" y2="18.3105" gradientUnits="userSpaceOnUse">
<stop stop-color="#E2E2E2"></stop>
<stop offset="1" stop-color="white"></stop>
</linearGradient>
</defs>
</svg>